<mxfile host="app.diagrams.net" agent="Mozilla/5.0 (Windows NT 10.0; Win64; x64) AppleWebKit/537.36 (KHTML, like Gecko) Chrome/133.0.0.0 Safari/537.36" version="26.1.0">
  <diagram name="Page-1" id="aZwWkZBE1YyYU1bkaHg8">
    <mxGraphModel dx="1687" dy="965" grid="1" gridSize="10" guides="1" tooltips="1" connect="1" arrows="1" fold="1" page="1" pageScale="1" pageWidth="850" pageHeight="1100" math="0" shadow="0">
      <root>
        <mxCell id="0" />
        <mxCell id="1" parent="0" />
        <mxCell id="iMzyy-nn-ugyT1BdIYYg-1" value="&lt;u&gt;INIT&lt;/u&gt;&lt;div&gt;&lt;br&gt;&lt;/div&gt;&lt;div&gt;IDLE&lt;/div&gt;" style="ellipse;whiteSpace=wrap;html=1;aspect=fixed;fillColor=#dae8fc;strokeColor=#6c8ebf;" vertex="1" parent="1">
          <mxGeometry x="370" y="180" width="100" height="100" as="geometry" />
        </mxCell>
        <mxCell id="iMzyy-nn-ugyT1BdIYYg-2" value="MEANDER" style="ellipse;whiteSpace=wrap;html=1;aspect=fixed;" vertex="1" parent="1">
          <mxGeometry x="570" y="180" width="100" height="100" as="geometry" />
        </mxCell>
        <mxCell id="iMzyy-nn-ugyT1BdIYYg-3" value="APPROACH" style="ellipse;whiteSpace=wrap;html=1;aspect=fixed;" vertex="1" parent="1">
          <mxGeometry x="540" y="390" width="90" height="90" as="geometry" />
        </mxCell>
        <mxCell id="iMzyy-nn-ugyT1BdIYYg-4" value="" style="endArrow=classic;html=1;rounded=0;entryX=0;entryY=0.5;entryDx=0;entryDy=0;exitX=1;exitY=0.5;exitDx=0;exitDy=0;" edge="1" parent="1" source="iMzyy-nn-ugyT1BdIYYg-1" target="iMzyy-nn-ugyT1BdIYYg-2">
          <mxGeometry width="50" height="50" relative="1" as="geometry">
            <mxPoint x="690" y="500" as="sourcePoint" />
            <mxPoint x="740" y="450" as="targetPoint" />
          </mxGeometry>
        </mxCell>
        <mxCell id="iMzyy-nn-ugyT1BdIYYg-29" value="Non Patrol" style="edgeLabel;html=1;align=center;verticalAlign=middle;resizable=0;points=[];" vertex="1" connectable="0" parent="iMzyy-nn-ugyT1BdIYYg-4">
          <mxGeometry x="-0.12" y="1" relative="1" as="geometry">
            <mxPoint as="offset" />
          </mxGeometry>
        </mxCell>
        <mxCell id="iMzyy-nn-ugyT1BdIYYg-5" value="" style="endArrow=classic;html=1;rounded=0;entryX=1;entryY=0;entryDx=0;entryDy=0;exitX=0;exitY=0;exitDx=0;exitDy=0;" edge="1" parent="1" source="iMzyy-nn-ugyT1BdIYYg-2" target="iMzyy-nn-ugyT1BdIYYg-1">
          <mxGeometry width="50" height="50" relative="1" as="geometry">
            <mxPoint x="690" y="500" as="sourcePoint" />
            <mxPoint x="740" y="450" as="targetPoint" />
          </mxGeometry>
        </mxCell>
        <mxCell id="iMzyy-nn-ugyT1BdIYYg-20" value="" style="endArrow=classic;html=1;rounded=0;entryX=1;entryY=1;entryDx=0;entryDy=0;exitX=0.5;exitY=0;exitDx=0;exitDy=0;" edge="1" parent="1" source="iMzyy-nn-ugyT1BdIYYg-3" target="iMzyy-nn-ugyT1BdIYYg-1">
          <mxGeometry width="50" height="50" relative="1" as="geometry">
            <mxPoint x="270" y="320" as="sourcePoint" />
            <mxPoint x="320" y="270" as="targetPoint" />
          </mxGeometry>
        </mxCell>
        <mxCell id="iMzyy-nn-ugyT1BdIYYg-42" value="Detect Lost" style="edgeLabel;html=1;align=center;verticalAlign=middle;resizable=0;points=[];" vertex="1" connectable="0" parent="iMzyy-nn-ugyT1BdIYYg-20">
          <mxGeometry x="-0.4814" y="-2" relative="1" as="geometry">
            <mxPoint as="offset" />
          </mxGeometry>
        </mxCell>
        <mxCell id="iMzyy-nn-ugyT1BdIYYg-22" value="" style="endArrow=classic;html=1;rounded=0;entryX=0;entryY=0.5;entryDx=0;entryDy=0;exitX=1;exitY=1;exitDx=0;exitDy=0;" edge="1" parent="1" source="iMzyy-nn-ugyT1BdIYYg-1" target="iMzyy-nn-ugyT1BdIYYg-3">
          <mxGeometry width="50" height="50" relative="1" as="geometry">
            <mxPoint x="270" y="320" as="sourcePoint" />
            <mxPoint x="320" y="270" as="targetPoint" />
          </mxGeometry>
        </mxCell>
        <mxCell id="iMzyy-nn-ugyT1BdIYYg-23" value="Non seek" style="edgeLabel;html=1;align=center;verticalAlign=middle;resizable=0;points=[];" vertex="1" connectable="0" parent="iMzyy-nn-ugyT1BdIYYg-22">
          <mxGeometry x="0.315" y="3" relative="1" as="geometry">
            <mxPoint as="offset" />
          </mxGeometry>
        </mxCell>
        <mxCell id="iMzyy-nn-ugyT1BdIYYg-24" value="" style="endArrow=classic;html=1;rounded=0;entryX=0.79;entryY=0.11;entryDx=0;entryDy=0;entryPerimeter=0;exitX=0;exitY=0.5;exitDx=0;exitDy=0;" edge="1" parent="1" source="iMzyy-nn-ugyT1BdIYYg-1" target="iMzyy-nn-ugyT1BdIYYg-25">
          <mxGeometry width="50" height="50" relative="1" as="geometry">
            <mxPoint x="220" y="290" as="sourcePoint" />
            <mxPoint x="335.35533905932743" y="350.0046609406726" as="targetPoint" />
          </mxGeometry>
        </mxCell>
        <mxCell id="iMzyy-nn-ugyT1BdIYYg-28" value="is_seeker" style="edgeLabel;html=1;align=center;verticalAlign=middle;resizable=0;points=[];" vertex="1" connectable="0" parent="iMzyy-nn-ugyT1BdIYYg-24">
          <mxGeometry x="0.3481" y="-4" relative="1" as="geometry">
            <mxPoint x="1" as="offset" />
          </mxGeometry>
        </mxCell>
        <mxCell id="iMzyy-nn-ugyT1BdIYYg-25" value="CHASE" style="ellipse;whiteSpace=wrap;html=1;aspect=fixed;" vertex="1" parent="1">
          <mxGeometry x="70" y="210" width="100" height="100" as="geometry" />
        </mxCell>
        <mxCell id="iMzyy-nn-ugyT1BdIYYg-30" value="&lt;div&gt;&lt;u&gt;INIT&lt;/u&gt;&lt;/div&gt;PATROL" style="ellipse;whiteSpace=wrap;html=1;aspect=fixed;fillColor=#dae8fc;strokeColor=#6c8ebf;" vertex="1" parent="1">
          <mxGeometry x="280" y="350" width="100" height="100" as="geometry" />
        </mxCell>
        <mxCell id="iMzyy-nn-ugyT1BdIYYg-31" value="" style="endArrow=classic;html=1;rounded=0;entryX=0.5;entryY=0;entryDx=0;entryDy=0;exitX=0;exitY=1;exitDx=0;exitDy=0;" edge="1" parent="1" source="iMzyy-nn-ugyT1BdIYYg-1" target="iMzyy-nn-ugyT1BdIYYg-30">
          <mxGeometry width="50" height="50" relative="1" as="geometry">
            <mxPoint x="430" y="280" as="sourcePoint" />
            <mxPoint x="480" y="230" as="targetPoint" />
          </mxGeometry>
        </mxCell>
        <mxCell id="iMzyy-nn-ugyT1BdIYYg-34" value="" style="endArrow=classic;html=1;rounded=0;exitX=1;exitY=0.5;exitDx=0;exitDy=0;entryX=0.5;entryY=1;entryDx=0;entryDy=0;" edge="1" parent="1" source="iMzyy-nn-ugyT1BdIYYg-30" target="iMzyy-nn-ugyT1BdIYYg-1">
          <mxGeometry width="50" height="50" relative="1" as="geometry">
            <mxPoint x="370" y="300" as="sourcePoint" />
            <mxPoint x="420" y="250" as="targetPoint" />
          </mxGeometry>
        </mxCell>
        <mxCell id="iMzyy-nn-ugyT1BdIYYg-38" value="ATTACK/ATTACK ALT" style="ellipse;whiteSpace=wrap;html=1;aspect=fixed;" vertex="1" parent="1">
          <mxGeometry x="800" y="440" width="100" height="100" as="geometry" />
        </mxCell>
        <mxCell id="iMzyy-nn-ugyT1BdIYYg-39" value="CAST SPELL" style="ellipse;whiteSpace=wrap;html=1;aspect=fixed;" vertex="1" parent="1">
          <mxGeometry x="535" y="590" width="100" height="100" as="geometry" />
        </mxCell>
        <mxCell id="iMzyy-nn-ugyT1BdIYYg-41" value="" style="endArrow=classic;html=1;rounded=0;exitX=0.5;exitY=1;exitDx=0;exitDy=0;" edge="1" parent="1" source="iMzyy-nn-ugyT1BdIYYg-25">
          <mxGeometry width="50" height="50" relative="1" as="geometry">
            <mxPoint x="-10" y="370" as="sourcePoint" />
            <mxPoint x="120" y="390" as="targetPoint" />
          </mxGeometry>
        </mxCell>
        <mxCell id="iMzyy-nn-ugyT1BdIYYg-43" value="Detect Found" style="edgeLabel;html=1;align=center;verticalAlign=middle;resizable=0;points=[];" vertex="1" connectable="0" parent="1">
          <mxGeometry x="459.99520000057237" y="350.0040041598486" as="geometry">
            <mxPoint x="16" y="4" as="offset" />
          </mxGeometry>
        </mxCell>
        <mxCell id="iMzyy-nn-ugyT1BdIYYg-45" value="" style="endArrow=classic;startArrow=classic;html=1;rounded=0;entryX=0;entryY=0.5;entryDx=0;entryDy=0;exitX=1;exitY=1;exitDx=0;exitDy=0;" edge="1" parent="1" source="iMzyy-nn-ugyT1BdIYYg-30" target="iMzyy-nn-ugyT1BdIYYg-3">
          <mxGeometry width="50" height="50" relative="1" as="geometry">
            <mxPoint x="390" y="450" as="sourcePoint" />
            <mxPoint x="440" y="400" as="targetPoint" />
          </mxGeometry>
        </mxCell>
        <mxCell id="iMzyy-nn-ugyT1BdIYYg-46" value="" style="endArrow=classic;startArrow=classic;html=1;rounded=0;entryX=0.5;entryY=1;entryDx=0;entryDy=0;exitX=1;exitY=0;exitDx=0;exitDy=0;" edge="1" parent="1" source="iMzyy-nn-ugyT1BdIYYg-3" target="iMzyy-nn-ugyT1BdIYYg-2">
          <mxGeometry width="50" height="50" relative="1" as="geometry">
            <mxPoint x="390" y="450" as="sourcePoint" />
            <mxPoint x="440" y="400" as="targetPoint" />
          </mxGeometry>
        </mxCell>
        <mxCell id="iMzyy-nn-ugyT1BdIYYg-63" value="Detected" style="edgeLabel;html=1;align=center;verticalAlign=middle;resizable=0;points=[];" vertex="1" connectable="0" parent="iMzyy-nn-ugyT1BdIYYg-46">
          <mxGeometry x="0.1554" y="1" relative="1" as="geometry">
            <mxPoint as="offset" />
          </mxGeometry>
        </mxCell>
        <mxCell id="iMzyy-nn-ugyT1BdIYYg-48" value="" style="edgeStyle=orthogonalEdgeStyle;rounded=0;orthogonalLoop=1;jettySize=auto;html=1;" edge="1" parent="1" source="iMzyy-nn-ugyT1BdIYYg-47" target="iMzyy-nn-ugyT1BdIYYg-25">
          <mxGeometry relative="1" as="geometry" />
        </mxCell>
        <mxCell id="iMzyy-nn-ugyT1BdIYYg-64" value="Out of range &amp;gt; 5 sec" style="edgeLabel;html=1;align=center;verticalAlign=middle;resizable=0;points=[];" vertex="1" connectable="0" parent="iMzyy-nn-ugyT1BdIYYg-48">
          <mxGeometry x="-0.0353" y="-2" relative="1" as="geometry">
            <mxPoint as="offset" />
          </mxGeometry>
        </mxCell>
        <mxCell id="iMzyy-nn-ugyT1BdIYYg-47" value="SEARCH" style="ellipse;whiteSpace=wrap;html=1;aspect=fixed;" vertex="1" parent="1">
          <mxGeometry x="80" y="395" width="80" height="80" as="geometry" />
        </mxCell>
        <mxCell id="iMzyy-nn-ugyT1BdIYYg-49" value="" style="endArrow=classic;html=1;rounded=0;exitX=1;exitY=0.5;exitDx=0;exitDy=0;entryX=0;entryY=0.5;entryDx=0;entryDy=0;" edge="1" parent="1" source="iMzyy-nn-ugyT1BdIYYg-47" target="iMzyy-nn-ugyT1BdIYYg-1">
          <mxGeometry width="50" height="50" relative="1" as="geometry">
            <mxPoint x="190" y="490" as="sourcePoint" />
            <mxPoint x="240" y="440" as="targetPoint" />
          </mxGeometry>
        </mxCell>
        <mxCell id="iMzyy-nn-ugyT1BdIYYg-50" value="Not Found" style="edgeLabel;html=1;align=center;verticalAlign=middle;resizable=0;points=[];" vertex="1" connectable="0" parent="iMzyy-nn-ugyT1BdIYYg-49">
          <mxGeometry x="-0.1806" y="-1" relative="1" as="geometry">
            <mxPoint x="-47" y="48" as="offset" />
          </mxGeometry>
        </mxCell>
        <mxCell id="iMzyy-nn-ugyT1BdIYYg-51" value="" style="endArrow=classic;html=1;rounded=0;exitX=1;exitY=0.5;exitDx=0;exitDy=0;entryX=0;entryY=0.5;entryDx=0;entryDy=0;" edge="1" parent="1" source="iMzyy-nn-ugyT1BdIYYg-25" target="iMzyy-nn-ugyT1BdIYYg-3">
          <mxGeometry width="50" height="50" relative="1" as="geometry">
            <mxPoint x="200" y="570" as="sourcePoint" />
            <mxPoint x="250" y="520" as="targetPoint" />
          </mxGeometry>
        </mxCell>
        <mxCell id="iMzyy-nn-ugyT1BdIYYg-52" value="" style="endArrow=classic;html=1;rounded=0;exitX=1;exitY=1;exitDx=0;exitDy=0;entryX=0.5;entryY=1;entryDx=0;entryDy=0;" edge="1" parent="1" source="iMzyy-nn-ugyT1BdIYYg-47" target="iMzyy-nn-ugyT1BdIYYg-3">
          <mxGeometry width="50" height="50" relative="1" as="geometry">
            <mxPoint x="200" y="570" as="sourcePoint" />
            <mxPoint x="250" y="520" as="targetPoint" />
          </mxGeometry>
        </mxCell>
        <mxCell id="iMzyy-nn-ugyT1BdIYYg-62" value="Detected" style="edgeLabel;html=1;align=center;verticalAlign=middle;resizable=0;points=[];" vertex="1" connectable="0" parent="iMzyy-nn-ugyT1BdIYYg-52">
          <mxGeometry x="-0.218" y="-1" relative="1" as="geometry">
            <mxPoint as="offset" />
          </mxGeometry>
        </mxCell>
        <mxCell id="iMzyy-nn-ugyT1BdIYYg-53" value="" style="endArrow=classic;html=1;rounded=0;entryX=0.5;entryY=0;entryDx=0;entryDy=0;exitX=1;exitY=0.5;exitDx=0;exitDy=0;" edge="1" parent="1" source="iMzyy-nn-ugyT1BdIYYg-3" target="iMzyy-nn-ugyT1BdIYYg-38">
          <mxGeometry width="50" height="50" relative="1" as="geometry">
            <mxPoint x="460" y="600" as="sourcePoint" />
            <mxPoint x="510" y="550" as="targetPoint" />
          </mxGeometry>
        </mxCell>
        <mxCell id="iMzyy-nn-ugyT1BdIYYg-55" value="IN COMBAT RANGE&lt;div&gt;&amp;nbsp;AND STAM&amp;gt;COST&lt;/div&gt;" style="edgeLabel;html=1;align=center;verticalAlign=middle;resizable=0;points=[];" vertex="1" connectable="0" parent="iMzyy-nn-ugyT1BdIYYg-53">
          <mxGeometry x="-0.2822" y="2" relative="1" as="geometry">
            <mxPoint as="offset" />
          </mxGeometry>
        </mxCell>
        <mxCell id="iMzyy-nn-ugyT1BdIYYg-54" value="" style="endArrow=classic;html=1;rounded=0;exitX=0.5;exitY=1;exitDx=0;exitDy=0;entryX=0.5;entryY=0;entryDx=0;entryDy=0;" edge="1" parent="1" source="iMzyy-nn-ugyT1BdIYYg-3" target="iMzyy-nn-ugyT1BdIYYg-39">
          <mxGeometry width="50" height="50" relative="1" as="geometry">
            <mxPoint x="460" y="600" as="sourcePoint" />
            <mxPoint x="510" y="550" as="targetPoint" />
          </mxGeometry>
        </mxCell>
        <mxCell id="iMzyy-nn-ugyT1BdIYYg-56" value="IN SPELL RANGE OR&amp;nbsp;&lt;div&gt;COMBAT RANGE AND MANA&amp;gt;COST&lt;/div&gt;" style="edgeLabel;html=1;align=center;verticalAlign=middle;resizable=0;points=[];" vertex="1" connectable="0" parent="iMzyy-nn-ugyT1BdIYYg-54">
          <mxGeometry x="0.2" relative="1" as="geometry">
            <mxPoint as="offset" />
          </mxGeometry>
        </mxCell>
        <mxCell id="iMzyy-nn-ugyT1BdIYYg-57" value="DEFEND" style="ellipse;whiteSpace=wrap;html=1;aspect=fixed;" vertex="1" parent="1">
          <mxGeometry x="810" y="610" width="80" height="80" as="geometry" />
        </mxCell>
        <mxCell id="iMzyy-nn-ugyT1BdIYYg-59" value="" style="endArrow=classic;html=1;rounded=0;exitX=0.5;exitY=1;exitDx=0;exitDy=0;entryX=0.5;entryY=0;entryDx=0;entryDy=0;" edge="1" parent="1" source="iMzyy-nn-ugyT1BdIYYg-38" target="iMzyy-nn-ugyT1BdIYYg-57">
          <mxGeometry width="50" height="50" relative="1" as="geometry">
            <mxPoint x="680" y="680" as="sourcePoint" />
            <mxPoint x="730" y="630" as="targetPoint" />
          </mxGeometry>
        </mxCell>
        <mxCell id="iMzyy-nn-ugyT1BdIYYg-60" value="" style="endArrow=classic;html=1;rounded=0;exitX=1;exitY=0.5;exitDx=0;exitDy=0;entryX=0;entryY=0.5;entryDx=0;entryDy=0;" edge="1" parent="1" source="iMzyy-nn-ugyT1BdIYYg-39" target="iMzyy-nn-ugyT1BdIYYg-57">
          <mxGeometry width="50" height="50" relative="1" as="geometry">
            <mxPoint x="680" y="680" as="sourcePoint" />
            <mxPoint x="730" y="630" as="targetPoint" />
          </mxGeometry>
        </mxCell>
        <mxCell id="iMzyy-nn-ugyT1BdIYYg-61" value="" style="endArrow=classic;html=1;rounded=0;entryX=0;entryY=0;entryDx=0;entryDy=0;" edge="1" parent="1" source="iMzyy-nn-ugyT1BdIYYg-3" target="iMzyy-nn-ugyT1BdIYYg-57">
          <mxGeometry width="50" height="50" relative="1" as="geometry">
            <mxPoint x="680" y="650" as="sourcePoint" />
            <mxPoint x="730" y="600" as="targetPoint" />
          </mxGeometry>
        </mxCell>
        <mxCell id="iMzyy-nn-ugyT1BdIYYg-65" value="" style="endArrow=classic;html=1;rounded=0;exitX=0.5;exitY=1;exitDx=0;exitDy=0;" edge="1" parent="1" source="iMzyy-nn-ugyT1BdIYYg-57" target="iMzyy-nn-ugyT1BdIYYg-67">
          <mxGeometry width="50" height="50" relative="1" as="geometry">
            <mxPoint x="720" y="710" as="sourcePoint" />
            <mxPoint x="850" y="810" as="targetPoint" />
          </mxGeometry>
        </mxCell>
        <mxCell id="iMzyy-nn-ugyT1BdIYYg-66" value="STAM&amp;lt;COST OR 0" style="edgeLabel;html=1;align=center;verticalAlign=middle;resizable=0;points=[];" vertex="1" connectable="0" parent="iMzyy-nn-ugyT1BdIYYg-65">
          <mxGeometry x="-0.15" y="2" relative="1" as="geometry">
            <mxPoint as="offset" />
          </mxGeometry>
        </mxCell>
        <mxCell id="iMzyy-nn-ugyT1BdIYYg-67" value="AVOID" style="ellipse;whiteSpace=wrap;html=1;aspect=fixed;" vertex="1" parent="1">
          <mxGeometry x="690" y="760" width="80" height="80" as="geometry" />
        </mxCell>
        <mxCell id="iMzyy-nn-ugyT1BdIYYg-68" value="" style="endArrow=classic;html=1;rounded=0;entryX=1;entryY=1;entryDx=0;entryDy=0;exitX=0;exitY=0;exitDx=0;exitDy=0;" edge="1" parent="1" source="iMzyy-nn-ugyT1BdIYYg-67" target="iMzyy-nn-ugyT1BdIYYg-39">
          <mxGeometry width="50" height="50" relative="1" as="geometry">
            <mxPoint x="820" y="710" as="sourcePoint" />
            <mxPoint x="870" y="660" as="targetPoint" />
          </mxGeometry>
        </mxCell>
        <mxCell id="iMzyy-nn-ugyT1BdIYYg-70" value="MANA&amp;gt;COST AND STAM&amp;gt;COST&amp;nbsp;&lt;div&gt;AND COOLDOWN MET&lt;/div&gt;" style="edgeLabel;html=1;align=center;verticalAlign=middle;resizable=0;points=[];" vertex="1" connectable="0" parent="iMzyy-nn-ugyT1BdIYYg-68">
          <mxGeometry x="0.086" y="-1" relative="1" as="geometry">
            <mxPoint x="-1" as="offset" />
          </mxGeometry>
        </mxCell>
        <mxCell id="iMzyy-nn-ugyT1BdIYYg-71" value="&lt;span style=&quot;color: rgb(0, 0, 0); font-family: Helvetica; font-size: 11px; font-style: normal; font-variant-ligatures: normal; font-variant-caps: normal; font-weight: 400; letter-spacing: normal; orphans: 2; text-align: center; text-indent: 0px; text-transform: none; widows: 2; word-spacing: 0px; -webkit-text-stroke-width: 0px; white-space: nowrap; background-color: rgb(255, 255, 255); text-decoration-thickness: initial; text-decoration-style: initial; text-decoration-color: initial; float: none; display: inline !important;&quot;&gt;STAM&amp;gt;COST AND&amp;nbsp;&lt;/span&gt;&lt;div&gt;&lt;span style=&quot;color: rgb(0, 0, 0); font-family: Helvetica; font-size: 11px; font-style: normal; font-variant-ligatures: normal; font-variant-caps: normal; font-weight: 400; letter-spacing: normal; orphans: 2; text-align: center; text-indent: 0px; text-transform: none; widows: 2; word-spacing: 0px; -webkit-text-stroke-width: 0px; white-space: nowrap; background-color: rgb(255, 255, 255); text-decoration-thickness: initial; text-decoration-style: initial; text-decoration-color: initial; float: none; display: inline !important;&quot;&gt;COOLDOWN MET&lt;/span&gt;&lt;/div&gt;" style="text;whiteSpace=wrap;html=1;" vertex="1" parent="1">
          <mxGeometry x="750" y="500" width="100" height="40" as="geometry" />
        </mxCell>
        <mxCell id="iMzyy-nn-ugyT1BdIYYg-72" value="" style="endArrow=classic;html=1;rounded=0;exitX=1;exitY=0.5;exitDx=0;exitDy=0;" edge="1" parent="1" source="iMzyy-nn-ugyT1BdIYYg-57">
          <mxGeometry width="50" height="50" relative="1" as="geometry">
            <mxPoint x="970" y="660" as="sourcePoint" />
            <mxPoint x="1020" y="650" as="targetPoint" />
          </mxGeometry>
        </mxCell>
        <mxCell id="iMzyy-nn-ugyT1BdIYYg-73" value="STAM&amp;lt;COST&amp;nbsp;&lt;div&gt;AND HIT&lt;/div&gt;" style="edgeLabel;html=1;align=center;verticalAlign=middle;resizable=0;points=[];" vertex="1" connectable="0" parent="iMzyy-nn-ugyT1BdIYYg-72">
          <mxGeometry x="0.1692" y="-4" relative="1" as="geometry">
            <mxPoint as="offset" />
          </mxGeometry>
        </mxCell>
        <mxCell id="iMzyy-nn-ugyT1BdIYYg-74" value="STAGGER" style="ellipse;whiteSpace=wrap;html=1;aspect=fixed;" vertex="1" parent="1">
          <mxGeometry x="1020" y="610" width="80" height="80" as="geometry" />
        </mxCell>
        <mxCell id="iMzyy-nn-ugyT1BdIYYg-75" value="" style="endArrow=classic;html=1;rounded=0;entryX=1;entryY=1;entryDx=0;entryDy=0;exitX=0.5;exitY=0;exitDx=0;exitDy=0;" edge="1" parent="1" source="iMzyy-nn-ugyT1BdIYYg-67" target="iMzyy-nn-ugyT1BdIYYg-71">
          <mxGeometry width="50" height="50" relative="1" as="geometry">
            <mxPoint x="750" y="610" as="sourcePoint" />
            <mxPoint x="800" y="560" as="targetPoint" />
          </mxGeometry>
        </mxCell>
        <mxCell id="iMzyy-nn-ugyT1BdIYYg-76" value="" style="endArrow=classic;html=1;rounded=0;" edge="1" parent="1">
          <mxGeometry width="50" height="50" relative="1" as="geometry">
            <mxPoint x="729.5" y="840" as="sourcePoint" />
            <mxPoint x="729.5" y="920" as="targetPoint" />
          </mxGeometry>
        </mxCell>
        <mxCell id="iMzyy-nn-ugyT1BdIYYg-77" value="IS_COWARD" style="edgeLabel;html=1;align=center;verticalAlign=middle;resizable=0;points=[];" vertex="1" connectable="0" parent="iMzyy-nn-ugyT1BdIYYg-76">
          <mxGeometry x="-0.425" relative="1" as="geometry">
            <mxPoint as="offset" />
          </mxGeometry>
        </mxCell>
        <mxCell id="iMzyy-nn-ugyT1BdIYYg-78" value="FLEE!" style="ellipse;whiteSpace=wrap;html=1;aspect=fixed;" vertex="1" parent="1">
          <mxGeometry x="690" y="920" width="80" height="80" as="geometry" />
        </mxCell>
        <mxCell id="iMzyy-nn-ugyT1BdIYYg-79" value="" style="endArrow=classic;html=1;rounded=0;exitX=0.5;exitY=1;exitDx=0;exitDy=0;entryX=1;entryY=0.5;entryDx=0;entryDy=0;" edge="1" parent="1" source="iMzyy-nn-ugyT1BdIYYg-74" target="iMzyy-nn-ugyT1BdIYYg-67">
          <mxGeometry width="50" height="50" relative="1" as="geometry">
            <mxPoint x="630" y="770" as="sourcePoint" />
            <mxPoint x="680" y="720" as="targetPoint" />
          </mxGeometry>
        </mxCell>
        <mxCell id="iMzyy-nn-ugyT1BdIYYg-80" value="" style="endArrow=classic;html=1;rounded=0;entryX=0;entryY=1;entryDx=0;entryDy=0;exitX=0.5;exitY=0;exitDx=0;exitDy=0;" edge="1" parent="1" source="iMzyy-nn-ugyT1BdIYYg-67" target="iMzyy-nn-ugyT1BdIYYg-57">
          <mxGeometry width="50" height="50" relative="1" as="geometry">
            <mxPoint x="510" y="800" as="sourcePoint" />
            <mxPoint x="560" y="750" as="targetPoint" />
          </mxGeometry>
        </mxCell>
        <mxCell id="iMzyy-nn-ugyT1BdIYYg-81" value="" style="endArrow=classic;html=1;rounded=0;entryX=1;entryY=1;entryDx=0;entryDy=0;exitX=0;exitY=0.5;exitDx=0;exitDy=0;" edge="1" parent="1" source="iMzyy-nn-ugyT1BdIYYg-30" target="iMzyy-nn-ugyT1BdIYYg-25">
          <mxGeometry width="50" height="50" relative="1" as="geometry">
            <mxPoint x="550" y="670" as="sourcePoint" />
            <mxPoint x="600" y="620" as="targetPoint" />
          </mxGeometry>
        </mxCell>
      </root>
    </mxGraphModel>
  </diagram>
</mxfile>
